<?xml version="1.0" encoding="UTF-8" standalone="no"?>
<!-- Created with Inkscape (http://www.inkscape.org/) -->

<svg
   xmlns:dc="http://purl.org/dc/elements/1.1/"
   xmlns:cc="http://creativecommons.org/ns#"
   xmlns:rdf="http://www.w3.org/1999/02/22-rdf-syntax-ns#"
   xmlns:svg="http://www.w3.org/2000/svg"
   xmlns="http://www.w3.org/2000/svg"
   xmlns:xlink="http://www.w3.org/1999/xlink"
   xmlns:sodipodi="http://sodipodi.sourceforge.net/DTD/sodipodi-0.dtd"
   xmlns:inkscape="http://www.inkscape.org/namespaces/inkscape"
   width="37.079475mm"
   height="10.847917mm"
   viewBox="0 0 37.079475 10.847917"
   version="1.1"
   id="svg12990"
   inkscape:version="0.92.5 (2060ec1f9f, 2020-04-08)"
   sodipodi:docname="not_jako_nand.svg">
  <defs
     id="defs12984">
    <marker
       inkscape:stockid="DotM"
       orient="auto"
       refY="0"
       refX="0"
       id="DotM"
       style="overflow:visible"
       inkscape:isstock="true">
      <path
         id="path883"
         d="m -2.5,-1 c 0,2.76 -2.24,5 -5,5 -2.76,0 -5,-2.24 -5,-5 0,-2.76 2.24,-5 5,-5 2.76,0 5,2.24 5,5 z"
         style="fill:#000000;fill-opacity:1;fill-rule:evenodd;stroke:#000000;stroke-width:1.00000003pt;stroke-opacity:1"
         transform="matrix(0.4,0,0,0.4,2.96,0.4)"
         inkscape:connector-curvature="0" />
    </marker>
    <symbol
       id="And_Gate">
      <title
         id="title17218">And Gate</title>
      <path
         style="stroke-width:0.26458332"
         inkscape:connector-curvature="0"
         d="M 6.6145833,18.520833 V 15.875 13.229167 10.583333 7.9375 h 7.9374997 c 2.922507,0 5.291667,2.36916 5.291667,5.291667 0,2.922506 -2.36916,5.291666 -5.291667,5.291666 z"
         id="path17220" />
    </symbol>
    <symbol
       id="Or_Gate">
      <title
         id="title17206">Or Gate</title>
      <path
         style="stroke-width:0.26458332"
         inkscape:connector-curvature="0"
         d="M 6.5236328,18.520833 H 11.90625 c 5.291667,0 7.9375,-5.291666 7.9375,-5.291666 0,0 -1.322917,-5.291667 -7.9375,-5.291667 H 6.5236328 c 0.4735846,0.8186706 0.8337984,1.7074809 1.0748698,2.645833 0.2173208,0.845905 0.3389974,1.731915 0.3389974,2.645834 0,0.913918 -0.1216766,1.799928 -0.3389974,2.645833 -0.2410714,0.938352 -0.6012852,1.827163 -1.0748698,2.645833 z"
         id="path17208" />
    </symbol>
    <symbol
       id="Xor_Gate">
      <title
         id="title17192">Xor Gate</title>
      <path
         style="stroke-width:0.26458332"
         inkscape:connector-curvature="0"
         d="M 6.5236328,18.520833 H 11.90625 c 5.291667,0 7.9375,-5.291666 7.9375,-5.291666 0,0 -1.322917,-5.291667 -7.9375,-5.291667 H 6.5236328 c 0.4735846,0.8186706 0.8337984,1.7074809 1.0748698,2.645833 0.2173208,0.845905 0.3389974,1.731915 0.3389974,2.645834 0,0.913918 -0.1216766,1.799928 -0.3389974,2.645833 -0.2410714,0.938352 -0.6012852,1.827163 -1.0748698,2.645833 z"
         id="path17194" />
      <path
         style="stroke-width:0.26458332"
         inkscape:connector-curvature="0"
         d="m 4.9361328,18.520833 c 1.0512687,-1.50219 1.6784505,-3.319012 1.6784505,-5.291666 0,-1.972655 -0.6271818,-3.7894769 -1.6784505,-5.291667"
         id="path17196" />
    </symbol>
    <symbol
       id="Buffer">
      <title
         id="title17223">Buffer</title>
      <path
         style="stroke-width:0.26458332"
         inkscape:connector-curvature="0"
         d="M 6.6145833,7.9375 19.84375,13.229167 6.6145833,18.520833 v -5.291666 z"
         id="path17225" />
    </symbol>
    <symbol
       id="Nand_Gate">
      <title
         id="title17211">Nand Gate</title>
      <path
         style="stroke-width:0.26458332"
         inkscape:connector-curvature="0"
         d="M 6.6145833,18.520833 V 15.875 13.229167 10.583333 7.9375 h 7.9374997 c 2.922507,0 5.291667,2.36916 5.291667,5.291667 0,2.922506 -2.36916,5.291666 -5.291667,5.291666 z"
         id="path17213" />
      <path
         style="stroke-width:0.26458332"
         inkscape:connector-curvature="0"
         d="m 21.166667,13.229167 c 0,0.365313 -0.296145,0.661458 -0.661459,0.661458 -0.365313,0 -0.661458,-0.296145 -0.661458,-0.661458 0,-0.365314 0.296145,-0.661459 0.661458,-0.661459 0.365314,0 0.661459,0.296145 0.661459,0.661459 z"
         id="path17215" />
    </symbol>
    <symbol
       id="Nor_Gate">
      <title
         id="title17199">Nor Gate</title>
      <path
         style="stroke-width:0.26458332"
         inkscape:connector-curvature="0"
         d="M 6.5236328,18.520833 H 11.90625 c 5.291667,0 7.9375,-5.291666 7.9375,-5.291666 0,0 -1.322917,-5.291667 -7.9375,-5.291667 H 6.5236328 c 0.4735846,0.8186706 0.8337984,1.7074809 1.0748698,2.645833 0.2173208,0.845905 0.3389974,1.731915 0.3389974,2.645834 0,0.913918 -0.1216766,1.799928 -0.3389974,2.645833 -0.2410714,0.938352 -0.6012852,1.827163 -1.0748698,2.645833 z"
         id="path17201" />
      <path
         style="stroke-width:0.26458332"
         inkscape:connector-curvature="0"
         d="m 21.166667,13.229167 c 0,0.365313 -0.296145,0.661458 -0.661459,0.661458 -0.365313,0 -0.661458,-0.296145 -0.661458,-0.661458 0,-0.365314 0.296145,-0.661459 0.661458,-0.661459 0.365314,0 0.661459,0.296145 0.661459,0.661459 z"
         id="path17203" />
    </symbol>
    <symbol
       id="Xnor_Gate">
      <title
         id="title17183">Xnor Gate</title>
      <path
         style="stroke-width:0.26458332"
         inkscape:connector-curvature="0"
         d="M 6.5236328,18.520833 H 11.90625 c 5.291667,0 7.9375,-5.291666 7.9375,-5.291666 0,0 -1.322917,-5.291667 -7.9375,-5.291667 H 6.5236328 c 0.4735846,0.8186706 0.8337984,1.7074809 1.0748698,2.645833 0.2173208,0.845905 0.3389974,1.731915 0.3389974,2.645834 0,0.913918 -0.1216766,1.799928 -0.3389974,2.645833 -0.2410714,0.938352 -0.6012852,1.827163 -1.0748698,2.645833 z"
         id="path17185" />
      <path
         style="stroke-width:0.26458332"
         inkscape:connector-curvature="0"
         d="m 21.166667,13.229167 c 0,0.365313 -0.296145,0.661458 -0.661459,0.661458 -0.365313,0 -0.661458,-0.296145 -0.661458,-0.661458 0,-0.365314 0.296145,-0.661459 0.661458,-0.661459 0.365314,0 0.661459,0.296145 0.661459,0.661459 z"
         id="path17187" />
      <path
         style="stroke-width:0.26458332"
         inkscape:connector-curvature="0"
         d="m 4.9361328,18.520833 c 1.0512687,-1.50219 1.6784505,-3.319012 1.6784505,-5.291666 0,-1.972655 -0.6271818,-3.7894769 -1.6784505,-5.291667"
         id="path17189" />
    </symbol>
    <symbol
       id="Not_Gate">
      <title
         id="title17228">Not Gate</title>
      <path
         inkscape:connector-curvature="0"
         style="stroke-width:0.26458332;stroke-miterlimit:2"
         d="M 6.6145833,7.9375 19.84375,13.229167 6.6145833,18.520833 v -5.291666 z"
         id="path17230" />
      <path
         style="stroke-width:0.26458332"
         inkscape:connector-curvature="0"
         d="m 21.166667,13.229167 c 0,0.365313 -0.296145,0.661458 -0.661459,0.661458 -0.365313,0 -0.661458,-0.296145 -0.661458,-0.661458 0,-0.365314 0.296145,-0.661459 0.661458,-0.661459 0.365314,0 0.661459,0.296145 0.661459,0.661459 z"
         id="path17232" />
    </symbol>
  </defs>
  <sodipodi:namedview
     id="base"
     pagecolor="#ffffff"
     bordercolor="#666666"
     borderopacity="1.0"
     inkscape:pageopacity="0.0"
     inkscape:pageshadow="2"
     inkscape:zoom="3.959798"
     inkscape:cx="93.184509"
     inkscape:cy="75.438736"
     inkscape:document-units="mm"
     inkscape:current-layer="layer1"
     showgrid="true"
     inkscape:window-width="1848"
     inkscape:window-height="1016"
     inkscape:window-x="72"
     inkscape:window-y="27"
     inkscape:window-maximized="1"
     fit-margin-top="0"
     fit-margin-left="0"
     fit-margin-right="0"
     fit-margin-bottom="0">
    <inkscape:grid
       type="xygrid"
       id="grid13535"
       originx="-62.931053"
       originy="-199.62812" />
  </sodipodi:namedview>
  <metadata
     id="metadata12987">
    <rdf:RDF>
      <cc:Work
         rdf:about="">
        <dc:format>image/svg+xml</dc:format>
        <dc:type
           rdf:resource="http://purl.org/dc/dcmitype/StillImage" />
        <dc:title></dc:title>
      </cc:Work>
    </rdf:RDF>
  </metadata>
  <g
     inkscape:label="Layer 1"
     inkscape:groupmode="layer"
     id="layer1"
     transform="translate(-62.931056,-86.523958)">
    <use
       id="use17678"
       style="fill:none;stroke:#000000;stroke-width:2"
       xlink:href="#Nand_Gate"
       x="0"
       y="0"
       width="100%"
       height="100%"
       transform="translate(70.114583,78.71875)" />
    <path
       style="fill:none;stroke:#000000;stroke-width:0.26458332px;stroke-linecap:butt;stroke-linejoin:miter;stroke-opacity:1"
       d="m 71.4375,89.302083 h 5.291667"
       id="path17781-2"
       inkscape:connector-curvature="0" />
    <path
       style="fill:none;stroke:#000000;stroke-width:0.26458332px;stroke-linecap:butt;stroke-linejoin:miter;stroke-opacity:1"
       d="m 71.4375,94.59375 h 5.291667"
       id="path17783-28"
       inkscape:connector-curvature="0" />
    <text
       xml:space="preserve"
       style="font-style:normal;font-weight:normal;font-size:4.23333311px;line-height:1.25;font-family:sans-serif;letter-spacing:0px;word-spacing:0px;fill:#000000;fill-opacity:1;stroke:none;stroke-width:0.26458332"
       x="62.804966"
       y="93.377945"
       id="text17787-97"><tspan
         sodipodi:role="line"
         id="tspan17785-36"
         x="62.804966"
         y="93.377945"
         style="stroke-width:0.26458332">X</tspan></text>
    <text
       xml:space="preserve"
       style="font-style:normal;font-weight:normal;font-size:4.23333311px;line-height:1.25;font-family:sans-serif;letter-spacing:0px;word-spacing:0px;fill:#000000;fill-opacity:1;stroke:none;stroke-width:0.26458332"
       x="97.416374"
       y="93.19059"
       id="text17791-12"><tspan
         sodipodi:role="line"
         id="tspan17789-93"
         x="97.416374"
         y="93.19059"
         style="stroke-width:0.26458332">Y</tspan></text>
    <path
       style="fill:none;stroke:#000000;stroke-width:0.26458332px;stroke-linecap:butt;stroke-linejoin:miter;stroke-opacity:1"
       d="M 91.281253,91.947911 H 96.57292"
       id="path17783-28-6"
       inkscape:connector-curvature="0" />
    <path
       style="fill:none;stroke:#000000;stroke-width:0.26458332px;stroke-linecap:butt;stroke-linejoin:miter;stroke-opacity:1"
       d="m 71.437503,89.302076 v 5.291667"
       id="path18019"
       inkscape:connector-curvature="0" />
    <path
       style="fill:none;stroke:#000000;stroke-width:0.26499999;stroke-linecap:butt;stroke-linejoin:miter;stroke-miterlimit:4;stroke-dasharray:none;stroke-opacity:1;marker-end:url(#DotM)"
       d="m 66.145836,91.947909 h 5.291667"
       id="path18021"
       inkscape:connector-curvature="0" />
  </g>
</svg>
