<?xml version="1.0" encoding="UTF-8" standalone="no"?>
<!-- Created with Inkscape (http://www.inkscape.org/) -->

<svg
   xmlns:dc="http://purl.org/dc/elements/1.1/"
   xmlns:cc="http://creativecommons.org/ns#"
   xmlns:rdf="http://www.w3.org/1999/02/22-rdf-syntax-ns#"
   xmlns:svg="http://www.w3.org/2000/svg"
   xmlns="http://www.w3.org/2000/svg"
   xmlns:xlink="http://www.w3.org/1999/xlink"
   xmlns:sodipodi="http://sodipodi.sourceforge.net/DTD/sodipodi-0.dtd"
   xmlns:inkscape="http://www.inkscape.org/namespaces/inkscape"
   width="63.5mm"
   height="26.722906mm"
   viewBox="0 0 63.5 26.722906"
   version="1.1"
   id="svg2804"
   inkscape:version="0.92.5 (2060ec1f9f, 2020-04-08)"
   sodipodi:docname="or_by_nand.svg">
  <defs
     id="defs2798">
    <marker
       inkscape:stockid="DotM"
       orient="auto"
       refY="0.0"
       refX="0.0"
       id="marker5079"
       style="overflow:visible"
       inkscape:isstock="true">
      <path
         id="path5077"
         d="M -2.5,-1.0 C -2.5,1.7600000 -4.7400000,4.0 -7.5,4.0 C -10.260000,4.0 -12.5,1.7600000 -12.5,-1.0 C -12.5,-3.7600000 -10.260000,-6.0 -7.5,-6.0 C -4.7400000,-6.0 -2.5,-3.7600000 -2.5,-1.0 z "
         style="fill-rule:evenodd;stroke:#000000;stroke-width:1pt;stroke-opacity:1;fill:#000000;fill-opacity:1"
         transform="scale(0.4) translate(7.4, 1)" />
    </marker>
    <marker
       inkscape:stockid="DotM"
       orient="auto"
       refY="0.0"
       refX="0.0"
       id="DotM"
       style="overflow:visible"
       inkscape:isstock="true">
      <path
         id="path4877"
         d="M -2.5,-1.0 C -2.5,1.7600000 -4.7400000,4.0 -7.5,4.0 C -10.260000,4.0 -12.5,1.7600000 -12.5,-1.0 C -12.5,-3.7600000 -10.260000,-6.0 -7.5,-6.0 C -4.7400000,-6.0 -2.5,-3.7600000 -2.5,-1.0 z "
         style="fill-rule:evenodd;stroke:#000000;stroke-width:1pt;stroke-opacity:1;fill:#000000;fill-opacity:1"
         transform="scale(0.4) translate(7.4, 1)" />
    </marker>
    <marker
       inkscape:stockid="Arrow1Mend"
       orient="auto"
       refY="0"
       refX="0"
       id="Arrow1Mend"
       style="overflow:visible"
       inkscape:isstock="true">
      <path
         id="path828"
         d="M 0,0 5,-5 -12.5,0 5,5 Z"
         style="fill:#000000;fill-opacity:1;fill-rule:evenodd;stroke:#000000;stroke-width:1.00000003pt;stroke-opacity:1"
         transform="matrix(-0.4,0,0,-0.4,-4,0)"
         inkscape:connector-curvature="0" />
    </marker>
    <marker
       inkscape:stockid="Arrow1Lstart"
       orient="auto"
       refY="0"
       refX="0"
       id="Arrow1Lstart"
       style="overflow:visible"
       inkscape:isstock="true">
      <path
         id="path819"
         d="M 0,0 5,-5 -12.5,0 5,5 Z"
         style="fill:#000000;fill-opacity:1;fill-rule:evenodd;stroke:#000000;stroke-width:1.00000003pt;stroke-opacity:1"
         transform="matrix(0.8,0,0,0.8,10,0)"
         inkscape:connector-curvature="0" />
    </marker>
    <marker
       inkscape:stockid="Arrow2Lend"
       orient="auto"
       refY="0"
       refX="0"
       id="marker12152"
       style="overflow:visible"
       inkscape:isstock="true">
      <path
         id="path12150"
         style="fill:#000000;fill-opacity:1;fill-rule:evenodd;stroke:#000000;stroke-width:0.625;stroke-linejoin:round;stroke-opacity:1"
         d="M 8.7185878,4.0337352 -2.2072895,0.01601326 8.7185884,-4.0017078 c -1.7454984,2.3720609 -1.7354408,5.6174519 -6e-7,8.035443 z"
         transform="matrix(-1.1,0,0,-1.1,-1.1,0)"
         inkscape:connector-curvature="0" />
    </marker>
    <marker
       inkscape:stockid="Arrow2Lend"
       orient="auto"
       refY="0"
       refX="0"
       id="Arrow2Lend"
       style="overflow:visible"
       inkscape:isstock="true">
      <path
         id="path840"
         style="fill:#000000;fill-opacity:1;fill-rule:evenodd;stroke:#000000;stroke-width:0.625;stroke-linejoin:round;stroke-opacity:1"
         d="M 8.7185878,4.0337352 -2.2072895,0.01601326 8.7185884,-4.0017078 c -1.7454984,2.3720609 -1.7354408,5.6174519 -6e-7,8.035443 z"
         transform="matrix(-1.1,0,0,-1.1,-1.1,0)"
         inkscape:connector-curvature="0" />
    </marker>
    <marker
       inkscape:stockid="Arrow1Lend"
       orient="auto"
       refY="0"
       refX="0"
       id="Arrow1Lend"
       style="overflow:visible"
       inkscape:isstock="true">
      <path
         id="path822"
         d="M 0,0 5,-5 -12.5,0 5,5 Z"
         style="fill:#000000;fill-opacity:1;fill-rule:evenodd;stroke:#000000;stroke-width:1.00000003pt;stroke-opacity:1"
         transform="matrix(-0.8,0,0,-0.8,-10,0)"
         inkscape:connector-curvature="0" />
    </marker>
    <symbol
       id="Not_Gate_Small">
      <title
         id="title7054">Not Gate Small</title>
      <path
         style="stroke-width:0.26458332"
         inkscape:connector-curvature="0"
         d="m 17.859375,13.229167 c 0,0.365313 -0.296145,0.661458 -0.661458,0.661458 -0.365314,0 -0.661459,-0.296145 -0.661459,-0.661458 0,-0.365314 0.296145,-0.661459 0.661459,-0.661459 0.365313,0 0.661458,0.296145 0.661458,0.661459 z"
         id="path7056" />
      <path
         inkscape:connector-curvature="0"
         d="M 9.9778537,10.583333 16.592437,13.229167 9.9778537,15.875 Z"
         style="stroke-width:0.26458332;stroke-miterlimit:2"
         id="path7058" />
    </symbol>
    <symbol
       id="Not_Gate">
      <title
         id="title7666">Not Gate</title>
      <path
         inkscape:connector-curvature="0"
         style="stroke-width:0.26458332;stroke-miterlimit:2"
         d="M 6.6145833,7.9375 19.84375,13.229167 6.6145833,18.520833 v -5.291666 z"
         id="path7668" />
      <path
         style="stroke-width:0.26458332"
         inkscape:connector-curvature="0"
         d="m 21.166667,13.229167 c 0,0.365313 -0.296145,0.661458 -0.661459,0.661458 -0.365313,0 -0.661458,-0.296145 -0.661458,-0.661458 0,-0.365314 0.296145,-0.661459 0.661458,-0.661459 0.365314,0 0.661459,0.296145 0.661459,0.661459 z"
         id="path7670" />
    </symbol>
    <symbol
       id="Nand_Gate">
      <title
         id="title7649">Nand Gate</title>
      <path
         style="stroke-width:0.26458332"
         inkscape:connector-curvature="0"
         d="M 6.6145833,18.520833 V 15.875 13.229167 10.583333 7.9375 h 7.9374997 c 2.922507,0 5.291667,2.36916 5.291667,5.291667 0,2.922506 -2.36916,5.291666 -5.291667,5.291666 z"
         id="path7651" />
      <path
         style="stroke-width:0.26458332"
         inkscape:connector-curvature="0"
         d="m 21.166667,13.229167 c 0,0.365313 -0.296145,0.661458 -0.661459,0.661458 -0.365313,0 -0.661458,-0.296145 -0.661458,-0.661458 0,-0.365314 0.296145,-0.661459 0.661458,-0.661459 0.365314,0 0.661459,0.296145 0.661459,0.661459 z"
         id="path7653" />
    </symbol>
  </defs>
  <sodipodi:namedview
     id="base"
     pagecolor="#ffffff"
     bordercolor="#666666"
     borderopacity="1.0"
     inkscape:pageopacity="0.0"
     inkscape:pageshadow="2"
     inkscape:zoom="1.979899"
     inkscape:cx="-48.020483"
     inkscape:cy="64.438166"
     inkscape:document-units="mm"
     inkscape:current-layer="layer1"
     showgrid="true"
     fit-margin-top="0"
     fit-margin-left="0"
     fit-margin-right="0"
     fit-margin-bottom="0"
     inkscape:window-width="1848"
     inkscape:window-height="1136"
     inkscape:window-x="72"
     inkscape:window-y="27"
     inkscape:window-maximized="1">
    <inkscape:grid
       type="xygrid"
       id="grid3349"
       originx="-43.656248"
       originy="-137.45105" />
  </sodipodi:namedview>
  <metadata
     id="metadata2801">
    <rdf:RDF>
      <cc:Work
         rdf:about="">
        <dc:format>image/svg+xml</dc:format>
        <dc:type
           rdf:resource="http://purl.org/dc/dcmitype/StillImage" />
        <dc:title />
      </cc:Work>
    </rdf:RDF>
  </metadata>
  <g
     inkscape:label="Layer 1"
     inkscape:groupmode="layer"
     id="layer1"
     transform="translate(-43.656251,-132.82605)">
    <text
       xml:space="preserve"
       style="font-style:normal;font-weight:normal;font-size:4.23333311px;line-height:1.25;font-family:sans-serif;letter-spacing:0px;word-spacing:0px;fill:#000000;fill-opacity:1;stroke:none;stroke-width:0.26458332"
       x="44.573517"
       y="139.59837"
       id="text12859"><tspan
         sodipodi:role="line"
         id="tspan12857"
         x="44.573517"
         y="139.59837"
         style="stroke-width:0.26458332">X</tspan></text>
    <path
       style="fill:none;stroke:#000000;stroke-width:0.26458332px;stroke-linecap:butt;stroke-linejoin:miter;stroke-opacity:1"
       d="m 43.656251,140.89583 h 13.229166 l 3e-6,-5.29166 h 6.614583"
       id="path9831"
       inkscape:connector-curvature="0"
       sodipodi:nodetypes="cccc" />
    <use
       id="use9965"
       transform="translate(56.88542,125.02084)"
       style="fill:none;stroke:#000000;stroke-width:2"
       xlink:href="#Nand_Gate"
       x="0"
       y="0"
       width="100%"
       height="100%" />
    <use
       id="use9993"
       transform="translate(56.885419,140.89583)"
       style="fill:none;stroke:#000000;stroke-width:2"
       xlink:href="#Nand_Gate"
       x="0"
       y="0"
       width="100%"
       height="100%" />
    <use
       id="use10017"
       transform="translate(80.697919,132.95834)"
       style="fill:none;stroke:#000000;stroke-width:2"
       xlink:href="#Nand_Gate"
       x="0"
       y="0"
       width="100%"
       height="100%" />
    <path
       style="fill:none;stroke:#000000;stroke-width:0.265;stroke-linecap:butt;stroke-linejoin:miter;stroke-opacity:1;stroke-miterlimit:4;stroke-dasharray:none;marker-start:url(#DotM)"
       d="m 56.885419,140.89584 h 6.614584"
       id="path10029"
       inkscape:connector-curvature="0" />
    <path
       style="fill:none;stroke:#000000;stroke-width:0.26458332px;stroke-linecap:butt;stroke-linejoin:miter;stroke-opacity:1"
       d="m 43.656253,156.77083 h 19.84375"
       id="path10031"
       inkscape:connector-curvature="0" />
    <path
       style="fill:none;stroke:#000000;stroke-width:0.26458332px;stroke-linecap:butt;stroke-linejoin:miter;stroke-opacity:1;marker-start:url(#marker5079)"
       d="m 56.885419,156.77083 v -5.29166 h 6.614584"
       id="path10033"
       inkscape:connector-curvature="0" />
    <path
       style="fill:none;stroke:#000000;stroke-width:0.26458332px;stroke-linecap:butt;stroke-linejoin:miter;stroke-opacity:1"
       d="m 78.052086,154.125 h 3.96875 l 10e-7,-5.29166 h 5.291667"
       id="path10035"
       inkscape:connector-curvature="0"
       sodipodi:nodetypes="cccc" />
    <path
       style="fill:none;stroke:#000000;stroke-width:0.26458332px;stroke-linecap:butt;stroke-linejoin:miter;stroke-opacity:1"
       d="m 78.052087,138.25 h 3.96875 v 5.29167 h 5.291667"
       id="path10037"
       inkscape:connector-curvature="0" />
    <path
       style="fill:none;stroke:#000000;stroke-width:0.26458332px;stroke-linecap:butt;stroke-linejoin:miter;stroke-opacity:1"
       d="m 101.86459,146.1875 h 5.29166"
       id="path10039"
       inkscape:connector-curvature="0" />
    <text
       xml:space="preserve"
       style="font-style:normal;font-weight:normal;font-size:4.23333311px;line-height:1.25;font-family:sans-serif;letter-spacing:0px;word-spacing:0px;fill:#000000;fill-opacity:1;stroke:none;stroke-width:0.26458332"
       x="44.71526"
       y="155.37889"
       id="text12859-9"><tspan
         sodipodi:role="line"
         id="tspan12857-1"
         x="44.71526"
         y="155.37889"
         style="stroke-width:0.26458332">Y</tspan></text>
  </g>
</svg>
